<?xml version="1.0" encoding="UTF-8"?>
<svg id="Layer_1" data-name="Layer 1" xmlns="http://www.w3.org/2000/svg" viewBox="0 0 64.61 64.61">
  <defs>
    <style>
      .cls-1 {
        fill: #686868;
        stroke: #686868;
        stroke-miterlimit: 10;
        stroke-width: 3px;
      }
    </style>
  </defs>
  <path class="cls-1" d="M57.56,7.05c-3.58-3.58-8.33-5.55-13.39-5.55s-9.81,1.97-13.39,5.55c-7.02,7.02-7.35,18.23-1.01,25.66l-4,4-2.23-2.23c-.28-.28-.66-.44-1.06-.44s-.78.16-1.06.44L1.94,53.96c-.28.28-.44.66-.44,1.06s.16.78.44,1.06l6.58,6.58c.29.29.68.44,1.06.44s.77-.15,1.06-.44l19.49-19.49c.59-.59.59-1.53,0-2.12l-2.23-2.23,4-4c3.42,2.93,7.72,4.54,12.27,4.54,5.06,0,9.81-1.97,13.39-5.55,3.58-3.58,5.55-8.33,5.55-13.39s-1.97-9.81-5.55-13.39ZM9.58,59.49l-4.46-4.46,17.37-17.37,4.46,4.46-17.37,17.37ZM55.44,31.7c-3.01,3.01-7.01,4.67-11.27,4.67s-8.26-1.66-11.27-4.67c-6.21-6.21-6.21-16.32,0-22.53,3.01-3.01,7.01-4.67,11.27-4.67s8.26,1.66,11.27,4.67c3.01,3.01,4.67,7.01,4.67,11.27s-1.66,8.26-4.67,11.27Z"/>
</svg>